<?xml version="1.0" encoding="UTF-8"?>
<svg width="38px" height="52px" viewBox="0 0 38 52" version="1.1" xmlns="http://www.w3.org/2000/svg" xmlns:xlink="http://www.w3.org/1999/xlink">
    <!-- Generator: Sketch 53.2 (72643) - https://sketchapp.com -->
    <title>A3</title>
    <desc>Created with Sketch.</desc>
    <g id="Desktop-Design" stroke="none" stroke-width="1" fill="none" fill-rule="evenodd" opacity="0.2">
        <g id="2_Topperoo_NewTemplate_1024" transform="translate(-319.000000, -363.000000)" fill="#333333">
            <g id="Sidebar" transform="translate(171.000000, 95.000000)">
                <g id="Scroll-sidebar" transform="translate(147.000000, 30.000000)">
                    <g id="Sheet-size" transform="translate(1.000000, 204.000000)">
                        <g id="Not-active" transform="translate(0.000000, 34.000000)">
                            <g id="A3">
                                <path d="M36.7567806,6.8679 L31.1938568,1.2545 L30.5375002,0.592187882 C30.1619215,0.213201282 29.6504778,1.23425357e-15 29.1169141,1.33226763e-15 L29.0720098,0 L2,0 C0.8954305,2.02906125e-16 -1.3527075e-16,0.8954305 0,2 L0,50 C-3.78894842e-15,51.1045695 0.8954305,52 2,52 L36,52 C37.1045695,52 38,51.1045695 38,50 L38,9.009 L38,8.94554086 C38,8.41823719 37.7917584,7.91226889 37.4205862,7.53772874 L36.7567806,6.8679 Z M30.314585,2.1411 L35.878153,7.75515 L30.314585,7.75515 L30.314585,2.1411 Z M1.24321942,50.7455 L1.24321942,1.2545 L29.0720098,1.2545 L29.0720098,7.009 C29.0720098,8.1135695 29.9674403,9.009 31.0720098,9.009 L36.7574247,9.009 L36.7574247,50.7455 L1.24321942,50.7455 Z" id="Shape" fill-rule="nonzero"></path>
                                <text font-family="ProximaNova-Regular, Proxima Nova" font-size="14" font-weight="normal">
                                    <tspan x="10" y="31">A3</tspan>
                                </text>
                            </g>
                        </g>
                    </g>
                </g>
            </g>
        </g>
    </g>
</svg>