<?xml version="1.0" encoding="UTF-8"?>
<svg width="106px" height="136px" viewBox="0 0 106 136" version="1.1" xmlns="http://www.w3.org/2000/svg" xmlns:xlink="http://www.w3.org/1999/xlink">
    <!-- Generator: Sketch 53.2 (72643) - https://sketchapp.com -->
    <title>Template</title>
    <desc>Created with Sketch.</desc>
    <g id="Desktop-Design" stroke="none" stroke-width="1" fill="none" fill-rule="evenodd">
        <g id="1_Topperoo_Templates_1024" transform="translate(-319.000000, -651.000000)" fill-rule="nonzero">
            <g id="Side-bar" transform="translate(171.000000, 95.000000)">
                <g id="Scroll-sidebar" transform="translate(148.000000, 30.000000)">
                    <g id="Templates" transform="translate(0.000000, 119.000000)">
                        <g id="5" transform="translate(0.000000, 407.000000)">
                            <g id="Template">
                                <rect id="Rectangle-2-Copy-9" fill="#F7F7F7" x="0" y="0" width="106" height="136" rx="3"></rect>
                                <g id="Group-5" transform="translate(10.000000, 17.000000)" stroke="#CFCFCF">
                                    <circle id="Oval-4-Copy-9" cx="6" cy="6" r="6"></circle>
                                    <circle id="Oval-4-Copy-12" cx="6" cy="24" r="6"></circle>
                                    <circle id="Oval-4-Copy-15" cx="6" cy="42" r="6"></circle>
                                    <circle id="Oval-4-Copy-20" cx="6" cy="60" r="6"></circle>
                                    <circle id="Oval-4-Copy-25" cx="6" cy="78" r="6"></circle>
                                    <circle id="Oval-4-Copy-34" cx="6" cy="96" r="6"></circle>
                                    <circle id="Oval-4-Copy-10" cx="24" cy="6" r="6"></circle>
                                    <circle id="Oval-4-Copy-13" cx="24" cy="24" r="6"></circle>
                                    <circle id="Oval-4-Copy-16" cx="24" cy="42" r="6"></circle>
                                    <circle id="Oval-4-Copy-18" cx="24" cy="60" r="6"></circle>
                                    <circle id="Oval-4-Copy-26" cx="24" cy="78" r="6"></circle>
                                    <circle id="Oval-4-Copy-35" cx="24" cy="96" r="6"></circle>
                                    <circle id="Oval-4-Copy-11" cx="42" cy="6" r="6"></circle>
                                    <circle id="Oval-4-Copy-21" cx="61" cy="6" r="6"></circle>
                                    <circle id="Oval-4-Copy-29" cx="80" cy="6" r="6"></circle>
                                    <circle id="Oval-4-Copy-14" cx="42" cy="24" r="6"></circle>
                                    <circle id="Oval-4-Copy-22" cx="61" cy="24" r="6"></circle>
                                    <circle id="Oval-4-Copy-30" cx="80" cy="24" r="6"></circle>
                                    <circle id="Oval-4-Copy-17" cx="42" cy="42" r="6"></circle>
                                    <circle id="Oval-4-Copy-23" cx="61" cy="42" r="6"></circle>
                                    <circle id="Oval-4-Copy-31" cx="80" cy="42" r="6"></circle>
                                    <circle id="Oval-4-Copy-19" cx="42" cy="60" r="6"></circle>
                                    <circle id="Oval-4-Copy-27" cx="42" cy="78" r="6"></circle>
                                    <circle id="Oval-4-Copy-36" cx="42" cy="96" r="6"></circle>
                                    <circle id="Oval-4-Copy-24" cx="61" cy="60" r="6"></circle>
                                    <circle id="Oval-4-Copy-32" cx="80" cy="60" r="6"></circle>
                                    <circle id="Oval-4-Copy-28" cx="61" cy="78" r="6"></circle>
                                    <circle id="Oval-4-Copy-37" cx="61" cy="96" r="6"></circle>
                                    <circle id="Oval-4-Copy-33" cx="80" cy="78" r="6"></circle>
                                    <circle id="Oval-4-Copy-38" cx="80" cy="96" r="6"></circle>
                                </g>
                            </g>
                        </g>
                    </g>
                </g>
            </g>
        </g>
    </g>
</svg>