<?xml version="1.0" encoding="UTF-8"?>
<svg width="308px" height="436px" viewBox="0 0 308 436" version="1.1" xmlns="http://www.w3.org/2000/svg" xmlns:xlink="http://www.w3.org/1999/xlink">
    <!-- Generator: Sketch 53.2 (72643) - https://sketchapp.com -->
    <title>Template</title>
    <desc>Created with Sketch.</desc>
    <g id="Desktop-Design" stroke="none" stroke-width="1" fill="none" fill-rule="evenodd">
        <g id="1_Topperoo_Templates_1024" transform="translate(-742.000000, -200.000000)" fill-rule="nonzero">
            <g id="Workspace" transform="translate(596.000000, 95.000000)">
                <g id="Template" transform="translate(146.000000, 105.000000)">
                    <rect id="Rectangle-9" fill="#F7F7F7" x="0" y="0" width="308" height="436" rx="3"></rect>
                    <path d="M88.5,142 C58.9527659,142 35,118.047234 35,88.5 C35,58.9527659 58.9527659,35 88.5,35 C118.047234,35 142,58.9527659 142,88.5 C142,118.047234 118.047234,142 88.5,142 Z M88.5,271 C58.9527659,271 35,247.047234 35,217.5 C35,187.952766 58.9527659,164 88.5,164 C118.047234,164 142,187.952766 142,217.5 C142,247.047234 118.047234,271 88.5,271 Z M88.5,401 C58.9527659,401 35,377.047234 35,347.5 C35,317.952766 58.9527659,294 88.5,294 C118.047234,294 142,317.952766 142,347.5 C142,377.047234 118.047234,401 88.5,401 Z M219.5,142 C189.952766,142 166,118.047234 166,88.5 C166,58.9527659 189.952766,35 219.5,35 C249.047234,35 273,58.9527659 273,88.5 C273,118.047234 249.047234,142 219.5,142 Z M219.5,271 C189.952766,271 166,247.047234 166,217.5 C166,187.952766 189.952766,164 219.5,164 C249.047234,164 273,187.952766 273,217.5 C273,247.047234 249.047234,271 219.5,271 Z M219.5,401 C189.952766,401 166,377.047234 166,347.5 C166,317.952766 189.952766,294 219.5,294 C249.047234,294 273,317.952766 273,347.5 C273,377.047234 249.047234,401 219.5,401 Z" id="Combined-Shape" stroke="#CFCFCF"></path>
                </g>
            </g>
        </g>
    </g>
</svg>