<?xml version="1.0" encoding="UTF-8"?>
<svg width="106px" height="136px" viewBox="0 0 106 136" version="1.1" xmlns="http://www.w3.org/2000/svg" xmlns:xlink="http://www.w3.org/1999/xlink">
    <!-- Generator: Sketch 53.2 (72643) - https://sketchapp.com -->
    <title>Template</title>
    <desc>Created with Sketch.</desc>
    <g id="Desktop-Design" stroke="none" stroke-width="1" fill="none" fill-rule="evenodd">
        <g id="1_Topperoo_Templates_1024" transform="translate(-445.000000, -451.000000)" fill-rule="nonzero">
            <g id="Side-bar" transform="translate(171.000000, 95.000000)">
                <g id="Scroll-sidebar" transform="translate(148.000000, 30.000000)">
                    <g id="Templates" transform="translate(0.000000, 119.000000)">
                        <g id="4" transform="translate(126.000000, 207.000000)">
                            <g id="Template">
                                <rect id="Rectangle-2-Copy-6" fill="#F7F7F7" x="0" y="0" width="106" height="136" rx="3"></rect>
                                <g id="Group-3" transform="translate(16.000000, 13.000000)" stroke="#CFCFCF">
                                    <path d="M9.5,18 C4.25329488,18 0,13.9705627 0,9 C0,4.02943725 4.25329488,0 9.5,0 C14.7467051,0 19,4.02943725 19,9 C19,13.9705627 14.7467051,18 9.5,18 Z M9.5,41 C4.25329488,41 0,36.9705627 0,32 C0,27.0294373 4.25329488,23 9.5,23 C14.7467051,23 19,27.0294373 19,32 C19,36.9705627 14.7467051,41 9.5,41 Z M9.5,64 C4.25329488,64 0,59.9705627 0,55 C0,50.0294373 4.25329488,46 9.5,46 C14.7467051,46 19,50.0294373 19,55 C19,59.9705627 14.7467051,64 9.5,64 Z M9.5,87 C4.25329488,87 0,82.9705627 0,78 C0,73.0294373 4.25329488,69 9.5,69 C14.7467051,69 19,73.0294373 19,78 C19,82.9705627 14.7467051,87 9.5,87 Z M9.5,110 C4.25329488,110 0,105.970563 0,101 C0,96.0294373 4.25329488,92 9.5,92 C14.7467051,92 19,96.0294373 19,101 C19,105.970563 14.7467051,110 9.5,110 Z M37.5,18 C32.2532949,18 28,13.9705627 28,9 C28,4.02943725 32.2532949,0 37.5,0 C42.7467051,0 47,4.02943725 47,9 C47,13.9705627 42.7467051,18 37.5,18 Z M37.5,41 C32.2532949,41 28,36.9705627 28,32 C28,27.0294373 32.2532949,23 37.5,23 C42.7467051,23 47,27.0294373 47,32 C47,36.9705627 42.7467051,41 37.5,41 Z M37.5,64 C32.2532949,64 28,59.9705627 28,55 C28,50.0294373 32.2532949,46 37.5,46 C42.7467051,46 47,50.0294373 47,55 C47,59.9705627 42.7467051,64 37.5,64 Z M37.5,87 C32.2532949,87 28,82.9705627 28,78 C28,73.0294373 32.2532949,69 37.5,69 C42.7467051,69 47,73.0294373 47,78 C47,82.9705627 42.7467051,87 37.5,87 Z M37.5,110 C32.2532949,110 28,105.970563 28,101 C28,96.0294373 32.2532949,92 37.5,92 C42.7467051,92 47,96.0294373 47,101 C47,105.970563 42.7467051,110 37.5,110 Z M64.5,18 C59.2532949,18 55,13.9705627 55,9 C55,4.02943725 59.2532949,0 64.5,0 C69.7467051,0 74,4.02943725 74,9 C74,13.9705627 69.7467051,18 64.5,18 Z M64.5,41 C59.2532949,41 55,36.9705627 55,32 C55,27.0294373 59.2532949,23 64.5,23 C69.7467051,23 74,27.0294373 74,32 C74,36.9705627 69.7467051,41 64.5,41 Z M64.5,64 C59.2532949,64 55,59.9705627 55,55 C55,50.0294373 59.2532949,46 64.5,46 C69.7467051,46 74,50.0294373 74,55 C74,59.9705627 69.7467051,64 64.5,64 Z M64.5,87 C59.2532949,87 55,82.9705627 55,78 C55,73.0294373 59.2532949,69 64.5,69 C69.7467051,69 74,73.0294373 74,78 C74,82.9705627 69.7467051,87 64.5,87 Z M64.5,110 C59.2532949,110 55,105.970563 55,101 C55,96.0294373 59.2532949,92 64.5,92 C69.7467051,92 74,96.0294373 74,101 C74,105.970563 69.7467051,110 64.5,110 Z" id="Combined-Shape"></path>
                                </g>
                            </g>
                        </g>
                    </g>
                </g>
            </g>
        </g>
    </g>
</svg>